<svg xmlns="http://www.w3.org/2000/svg" xmlns:xlink="http://www.w3.org/1999/xlink" width="81" height="62" viewBox="0 0 81 62">
  <defs>
    <polygon id="metasystem-a" points="0 .271 27.051 .271 27.051 22.615 0 22.615"/>
  </defs>
  <g fill="none" fill-rule="evenodd">
    <polygon fill="#FEFEFE" points="22.546 0 23.983 5.307 11.951 5.307 14.617 10.739 4 10.739 40.804 62 78 10.739 66.987 10.739 69.624 5.307 57.641 5.307 59.167 0"/>
    <polygon fill="#A6A8AB" points="14 7 41 62 24.295 7"/>
    <polygon fill="#A6A8AB" points="6 12 40 62 14.481 12"/>
    <polygon fill="#A6A8AB" points="57.706 7 41 62 68 7"/>
    <polygon fill="#A6A8AB" points="66.519 12 41 62 75 12"/>
    <polygon fill="#EC1D24" points="24 1 40.499 61 57 1"/>
    <g transform="translate(0 15)">
      <path fill="#FEFEFE" d="M8.58221413,25.6110651 C8.43782283,25.6110651 7.96649674,25.6439381 7.96649674,26.0682714 C7.96649674,26.621081 9.03270326,27.2532079 10.0639859,27.8645254 C10.3380946,28.0273825 10.623062,28.1959698 10.9083228,28.3748111 L10.7926924,27.8090333 C10.5763989,26.7504619 9.792225,25.6110651 8.58221413,25.6110651 M8.98838804,37.749954 C8.08271413,37.749954 7.34520326,37.5370333 6.80432283,37.3521603 L6.80432283,37.7312556 L4.06881196,37.7312556 L3.15814891,31.2012873 L5.85932283,31.2012873 L6.18801848,32.0276365 C6.70219239,33.3181286 7.37484457,34.5121127 8.80379022,34.5121127 C9.72355109,34.5121127 9.76992065,33.8504302 9.76992065,33.7180333 C9.76992065,33.2786206 9.76992065,32.9314937 7.38687717,31.5182556 C5.91126848,30.6566206 3.88421413,29.4731921 3.88421413,26.7414143 C3.88421413,23.8434619 6.24788804,22.2794302 8.47157283,22.2794302 C9.29155109,22.2794302 10.035812,22.5318587 10.5631924,22.726081 L10.643312,22.2794302 L13.1930511,22.2794302 L13.8607141,28.8280968 L11.5924207,28.8280968 C12.9386054,29.7780968 14.1289533,31.041446 14.1289533,33.0819857 C14.1289533,35.4017952 12.363388,37.749954 8.98838804,37.749954"/>
      <path fill="#FEFEFE" d="M16.2714033,37.4881159 L16.2714033,34.5937825 L17.4940337,34.5681476 C17.6167076,34.5657349 17.9245663,34.5594016 18.1267728,34.5376873 C18.1349902,34.3838778 18.1349902,34.163719 18.1349902,33.961354 L18.1349902,31.1071317 L15.9394793,27.8448619 C14.3673163,25.5015286 14.2003272,25.4864492 13.8681098,25.4565921 L12.7291207,25.3540524 L12.7291207,22.5411476 L20.3906641,22.5411476 L20.3906641,25.4071317 L19.5739141,25.4433222 L20.8499576,27.3837349 L22.0494033,25.4614175 L21.2529033,25.4614175 L21.2529033,22.5411476 L27.7889576,22.5411476 L27.7889576,25.3284175 L26.677262,25.4538778 C26.2936859,25.4970048 25.9911098,25.5310841 25.036425,27.0176079 L22.512512,30.9252746 L22.512512,34.1670365 C22.512512,34.2882746 22.512512,34.4264016 22.5160337,34.5355762 C22.6375337,34.5506556 22.8406207,34.5645286 23.1787076,34.567846 L24.4127837,34.5814175 L24.4127837,37.4881159 L16.2714033,37.4881159 Z"/>
      <path fill="#FEFEFE" d="M31.4614859,25.6110651 C31.3170946,25.6110651 30.8457685,25.6439381 30.8457685,26.0682714 C30.8457685,26.621081 31.911975,27.2532079 32.9432576,27.8645254 C33.2173663,28.0273825 33.5020402,28.1959698 33.7873011,28.3748111 L33.6716707,27.8090333 C33.4553772,26.7504619 32.6712033,25.6110651 31.4614859,25.6110651 M31.8673663,37.749954 C30.9625728,37.749954 30.224475,37.5370333 29.6833011,37.3521603 L29.6833011,37.7312556 L26.9480837,37.7312556 L26.0365402,31.2012873 L28.7380076,31.2012873 L29.0669967,32.0270333 C29.5811707,33.317827 30.2538228,34.5121127 31.6827685,34.5121127 C32.6025293,34.5121127 32.6488989,33.8504302 32.6488989,33.7180333 C32.6488989,33.2786206 32.6488989,32.9314937 30.2658554,31.5182556 C28.7905402,30.656319 26.7634859,29.4728905 26.7634859,26.7414143 C26.7634859,23.8434619 29.1271598,22.2794302 31.3508446,22.2794302 C32.1714098,22.2794302 32.9144967,22.5315571 33.4409967,22.7254778 L33.5208228,22.2794302 L36.0720293,22.2794302 L36.7396924,28.8280968 L34.4716924,28.8280968 C35.8172902,29.7780968 37.0079315,31.0417476 37.0079315,33.0819857 C37.0079315,35.4017952 35.2423663,37.749954 31.8673663,37.749954"/>
      <path fill="#FEFEFE" d="M38.7411261,37.4881159 L38.7411261,34.6221317 L39.9349957,34.5690524 C40.0380065,34.5648302 40.2901043,34.5536714 40.4676587,34.5319571 C40.4752891,34.379354 40.4752891,34.1616079 40.4752891,33.961354 L40.4752891,25.8917825 C39.2869957,25.8966079 39.2714413,25.976227 39.0161152,27.2603857 L38.8121478,28.285481 L36.0572674,28.285481 L35.9636478,22.5411476 L49.0709739,22.5411476 L49.2708326,28.285481 L46.5056804,28.285481 L46.309637,27.2474175 C46.0701587,25.9744175 46.0554848,25.8963063 44.8528109,25.8917825 L44.8528109,34.1670365 C44.8528109,34.2852587 44.8528109,34.4203698 44.8566261,34.526227 C44.9628652,34.5419095 45.1366043,34.5584968 45.4201043,34.5687508 L46.6239522,34.6121794 L46.6239522,37.4881159 L38.7411261,37.4881159 Z"/>
      <path fill="#FEFEFE" d="M55.8259337,28.0402302 C56.234162,28.0402302 56.4208141,28.0155 56.504162,27.9965 C56.543488,27.8650079 56.5854554,27.592373 56.6227272,27.346881 L56.7888359,26.2632778 L57.5715424,26.2632778 C57.5184228,26.034373 57.4811511,25.9710397 57.4600207,25.9559603 C57.3308902,25.8636746 56.868075,25.8169286 56.084488,25.8169286 L54.2323467,25.8169286 L54.2323467,28.0402302 L55.8259337,28.0402302 Z M54.2323467,34.2001508 C54.6664011,34.2128175 55.254825,34.2128175 55.7337815,34.2128175 C57.2854011,34.2128175 57.8547489,33.9742619 58.3210859,33.1675159 L56.7835533,33.1675159 L56.6218467,32.0784841 C56.6027707,31.9488016 56.5505315,31.5947381 56.4997598,31.4270556 C56.3260207,31.3968968 55.9618141,31.392373 55.8109663,31.3902619 L54.2323467,31.3694524 L54.2323467,34.2001508 Z M48.2497924,37.4880556 L48.2497924,34.6443889 L49.4207707,34.5701984 C49.5343467,34.5632619 49.7116076,34.5521032 49.8442598,34.5364206 C49.8504228,34.4561984 49.854825,34.338881 49.854825,34.1669762 L49.854825,25.8624683 C49.854825,25.6953889 49.8510098,25.5789762 49.8454337,25.498754 C49.7218793,25.483373 49.5548902,25.4701032 49.4005207,25.4577381 L48.2497924,25.3648492 L48.2497924,22.5413889 L60.5163033,22.5413889 L60.6248902,27.7808651 L59.527575,27.7808651 L59.527575,31.7627222 L61.9203033,31.7627222 L60.4165207,37.4880556 L48.2497924,37.4880556 Z"/>
      <path fill="#FEFEFE" d="M64.7927804,34.5302683 C64.9116391,34.5553 65.1543457,34.5652524 65.2426826,34.569173 L65.9919326,34.5999349 L64.7059109,31.7414905 L64.7059109,33.4563159 C64.7059109,34.1566016 64.7593239,34.4286333 64.7927804,34.5302683 Z M70.4164109,34.6171254 L71.3285413,34.5694746 C71.4306717,34.564046 71.6519543,34.5525857 71.8092587,34.5335857 C71.8224652,34.3517286 71.8224652,34.0833159 71.8224652,33.961173 L71.8224652,31.4233159 L70.4164109,34.6171254 Z M70.1434761,37.4882365 L70.1434761,35.2362841 L69.1521065,37.4882365 L67.2911609,37.4882365 L66.4400739,35.5963794 L66.4400739,37.4882365 L59.6087804,37.4882365 L59.6087804,34.6484905 L60.77565,34.570681 C60.9696391,34.5580143 61.2026609,34.5423317 61.3226935,34.5176016 C61.3532152,34.408427 61.3984109,34.1327762 61.3984109,33.4563159 L61.3984109,25.8626492 C61.3984109,25.6988873 61.3954761,25.5827762 61.3907804,25.501046 C61.2255522,25.4814429 60.9887152,25.4684746 60.8270087,25.4597286 L59.6457587,25.3951889 L59.6457587,22.5412683 L65.3436391,22.5412683 L68.7834978,30.1650937 L72.074563,22.5412683 L77.805313,22.5412683 L77.805313,25.3647286 L76.6548783,25.4576175 C76.5002152,25.4699825 76.3329326,25.483554 76.2093783,25.4989349 C76.2040957,25.5788556 76.199987,25.6952683 76.199987,25.8626492 L76.199987,34.1671571 C76.199987,34.3387603 76.2046826,34.4563794 76.2105522,34.5366016 C76.3432043,34.5519825 76.5207587,34.5631413 76.6340413,34.5703794 L77.805313,34.6445698 L77.805313,37.4882365 L70.1434761,37.4882365 Z"/>
      <g transform="translate(0 .302)">
        <mask id="metasystem-b" fill="#fff">
          <use xlink:href="#metasystem-a"/>
        </mask>
        <path fill="#FEFEFE" d="M16.4760457,22.6152175 L16.4760457,19.5471698 L17.65935,19.4844397 C18.435013,19.4434238 18.8702413,19.3734556 18.9535891,19.276646 C19.1017957,19.1044397 19.1017957,18.0832651 19.1017957,17.7472968 L19.1017957,10.258281 L13.7748717,22.6152175 L11.7542739,22.6152175 L6.56440435,10.8312968 L6.56440435,16.9408524 C6.56440435,19.4192968 6.79566522,19.4295508 8.08051304,19.4838365 L9.27673043,19.5342016 L9.27673043,22.6152175 L-0.000117391304,22.6152175 L-0.000117391304,19.5652651 L1.16528478,19.485646 C1.9157087,19.4343762 2.34917609,19.3737571 2.49298043,19.1997413 C2.79878478,18.8290905 2.79878478,17.4077095 2.79878478,16.9408524 L2.79878478,4.80980476 C2.79878478,3.80340794 2.70369783,3.63843968 2.67464348,3.61159841 C2.52262174,3.47316984 1.62223043,3.42280476 1.23748043,3.40109048 L0.0576978261,3.33474127 L0.0576978261,0.270614286 L7.82283913,0.270614286 L13.6589478,13.4825508 L19.2426652,0.270614286 L27.0509478,0.270614286 L27.0509478,3.30458254 L25.9028609,3.39897937 C25.3963174,3.4409 24.8225674,3.48794762 24.700187,3.59561429 C24.6840457,3.60978889 24.5405348,3.76601111 24.5405348,4.80980476 L24.5405348,18.076027 C24.5405348,19.1014238 24.6702522,19.2733286 24.6960783,19.2974556 C24.8249152,19.4171857 25.5122413,19.461519 25.881437,19.4853444 L27.0509478,19.5604397 L27.0509478,22.6152175 L16.4760457,22.6152175 Z" mask="url(#metasystem-b)"/>
      </g>
      <path fill="#FEFEFE" d="M37.2473804,9.35656508 C38.9263696,9.35656508 38.9263696,9.35656508 39.1881522,7.60554921 L39.3507391,6.51832698 L40.8360326,6.51832698 L40.8066848,6.33888254 C40.5017609,4.46813651 40.4697717,4.27270794 37.6515,4.27270794 L34.0514022,4.27270794 L34.0514022,9.35656508 L37.2473804,9.35656508 Z M34.0514022,19.1581524 C34.6656522,19.2166603 35.8146196,19.2166603 37.1032826,19.2166603 C40.2352826,19.2166603 41.202587,18.6297714 42.2773043,16.0759302 L42.3031304,16.0147079 L39.3454565,16.0147079 L39.1872717,14.9211524 C38.9372283,13.197581 38.9372283,13.197581 37.2321196,13.1761683 L34.0514022,13.1333429 L34.0514022,19.1581524 Z M26.10225,22.9168349 L26.10225,19.8620571 L27.2723478,19.7869619 C27.64125,19.7631365 28.3282826,19.7185016 28.457413,19.599073 C28.4832391,19.574946 28.612663,19.4030413 28.612663,18.3776444 L28.612663,5.11142222 C28.612663,4.06762857 28.4694457,3.91140635 28.4530109,3.89693016 C28.3306304,3.78956508 27.7571739,3.74251746 27.2509239,3.70089841 L26.10225,3.6062 L26.10225,0.572231746 L43.8940761,0.572231746 L44.0328913,7.40981905 L42.3327717,7.40981905 L42.3327717,15.9438349 L42.6021848,15.3026603 L45.8506957,15.3026603 L43.8929022,22.9168349 L26.10225,22.9168349 Z"/>
      <path fill="#FEFEFE" d="M47.5999435,22.9168048 L47.5999435,19.8394079 L48.7926391,19.7854238 C49.9826935,19.7314397 50.1746283,19.5993444 50.2054435,19.5601381 C50.3119761,19.4232175 50.3119761,18.6930746 50.3119761,18.0488841 L50.3119761,4.39180476 L50.0017696,4.39180476 C47.3930413,4.39180476 47.1415304,4.60080476 46.6376283,7.18601111 L46.4363022,8.21653492 L43.4290304,8.21653492 L43.6896391,0.572201587 L62.3736391,0.572201587 L62.6342478,8.21653492 L59.6158239,8.21653492 L59.4233022,7.17304286 C58.9487478,4.5999 58.697237,4.39180476 56.0615087,4.39180476 L55.7510087,4.39180476 L55.7510087,18.3776143 C55.7510087,19.0751857 55.7923891,19.4711698 55.8742696,19.5553127 C55.9408891,19.6234714 56.2173457,19.7444079 57.3181826,19.7851222 L58.52115,19.8294556 L58.52115,22.9168048 L47.5999435,22.9168048 Z"/>
      <path fill="#FEFEFE" d="M70.3809,12.6734222 L68.9140957,9.07216825 L67.4596174,12.6734222 L70.3809,12.6734222 Z M71.1234,22.9168349 L71.1234,19.7842476 L72.3712696,19.7842476 C72.736063,19.7842476 72.96615,19.7718825 73.1102478,19.7571048 C73.0486174,19.5076921 72.9054,19.0592317 72.6949761,18.550454 L71.8339109,16.4628667 L65.9526065,16.4628667 L64.9354109,19.1421683 C64.853237,19.3638349 64.8077478,19.5806762 64.7942478,19.7275492 C64.9028348,19.7534857 65.1141391,19.7842476 65.5041717,19.7842476 L66.7520413,19.7842476 L66.7520413,22.9168349 L58.5428674,22.9168349 L58.5428674,19.8620571 L59.7126717,19.7869619 C60.0683674,19.7640413 60.1631609,19.7393111 60.3539217,19.5306127 C60.836987,18.9862476 61.7288674,16.8458825 62.1570522,15.8174698 L62.2216174,15.6618508 L68.5416717,0.213946032 L70.7659435,0.213946032 L78.2769326,17.9560254 C79.0288239,19.7317714 79.1180413,19.7381048 79.8147587,19.7872635 L80.9772261,19.8692952 L80.9772261,22.9168349 L71.1234,22.9168349 Z"/>
      <path fill="#231F20" d="M78.4314783,29.7726079 L78.4314783,29.0092905 C78.4314783,28.7628937 78.4737391,28.7628937 78.7011848,28.7628937 C78.827087,28.7628937 78.940663,28.7628937 79.048663,28.8491476 C79.1739783,28.9480683 79.2221087,29.1015762 79.2221087,29.2553857 C79.2221087,29.729481 78.8807935,29.7726079 78.515413,29.7726079 L78.4314783,29.7726079 Z M77.7966848,28.7508302 L77.8923587,28.7571635 C77.9944891,28.7628937 78.0481957,28.7815921 78.0599348,28.8986079 L78.0599348,30.6960683 C78.0599348,30.8191159 78.0302935,30.8622429 77.9043913,30.8622429 L77.7966848,30.8682746 L77.7966848,30.9729254 L78.7011848,30.9729254 L78.7011848,30.8682746 L78.5274457,30.8562111 C78.4077065,30.8495762 78.4314783,30.6282111 78.4314783,30.5543222 L78.4314783,29.9019889 L78.5274457,29.9019889 C78.9286304,29.9019889 78.9468261,30.1173222 79.090337,30.4620365 C79.1384674,30.5850841 79.2221087,30.8251476 79.3301087,30.9114016 C79.4378152,30.9913222 79.5816196,30.9729254 79.7075217,30.9729254 L79.8571957,30.9729254 L79.8571957,30.8622429 C79.7612283,30.8622429 79.7075217,30.8495762 79.6596848,30.7880524 C79.5874891,30.7021 79.5100109,30.5235603 79.4618804,30.4192111 C79.365913,30.1972429 79.2341413,29.8896238 78.9826304,29.8341317 C79.2940109,29.8094016 79.5936522,29.556973 79.5936522,29.2125603 C79.5936522,29.0340206 79.5038478,28.8491476 79.3541739,28.7508302 C79.1739783,28.6338143 78.9107283,28.6338143 78.7070543,28.6338143 L77.7966848,28.6338143 L77.7966848,28.7508302 Z M78.7011848,31.6931159 C77.760587,31.6931159 76.9940217,30.8743063 76.9940217,29.9019889 C76.9940217,28.9046397 77.7547174,28.1045286 78.7187935,28.1045286 C79.6834565,28.1045286 80.4441522,28.9046397 80.4441522,29.9019889 C80.4441522,30.9114016 79.6596848,31.6931159 78.7011848,31.6931159 Z M78.7011848,31.9024175 C79.785,31.9024175 80.6481196,31.0100206 80.6481196,29.8832905 C80.6481196,28.769227 79.7673913,27.8949254 78.7011848,27.8949254 C77.6346848,27.8949254 76.7903478,28.8063222 76.7903478,29.9080206 C76.7903478,30.9913222 77.65875,31.9024175 78.7011848,31.9024175 Z"/>
      <path fill="#FEFEFE" d="M8.98832935 36.894954C8.05682935 36.894954 7.32929674 36.6358905 6.79810109 36.4464937 6.52751413 36.3499857 6.27218804 36.2592079 6.12867717 36.2592079 5.99954674 36.2592079 5.97254674 36.3620492 5.97254674 36.4489063L5.97254674 36.8762556 4.78982935 36.8762556 4.11747065 32.0562873 5.300775 32.0562873 5.4181663 32.3515413C5.77767717 33.2535889 6.6196663 35.3671127 8.80373152 35.3671127 10.0389815 35.3671127 10.6018728 34.5121127 10.6018728 33.7180333 10.6018728 32.9004302 10.471862 32.3608905 7.80267717 30.7778587 6.05501413 29.7572873 4.7161663 28.8109063 4.7161663 26.7414143 4.7161663 24.3733508 6.60528587 23.1344302 8.47151413 23.1344302 9.21724239 23.1344302 9.90897065 23.3916841 10.4134598 23.5792714 10.6549924 23.6691444 10.9279272 23.7704778 11.0362207 23.7704778 11.1612424 23.7704778 11.2237533 23.7581127 11.2730576 23.4842714L11.335862 23.1344302 12.4437424 23.1344302 12.9370793 27.9730968 11.6762967 27.9730968 11.6070359 27.6335095C11.3235359 26.2477159 10.2561554 24.7560651 8.58215543 24.7560651 7.88485109 24.7560651 7.13472065 25.1665254 7.13472065 26.0682714 7.13472065 27.1147794 8.29953587 27.8054143 9.64836196 28.6052238 11.3587533 29.6191603 13.2971772 30.7688111 13.2971772 33.0819857 13.2971772 34.9771603 11.8171663 36.894954 8.98832935 36.894954M17.6903707 36.6331159L17.6903707 35.4315921 18.098012 35.422846C19.5539576 35.3929889 19.5539576 35.284719 19.5539576 33.961354L19.5539576 30.840227 17.2105337 27.3587032C15.417088 24.6851317 15.1928707 24.6646238 14.5275554 24.6049095L14.148088 24.5708302 14.148088 23.3961476 20.1456098 23.3961476 20.1456098 24.5883222 19.7476533 24.6061159C19.3831533 24.6224016 18.9414685 24.6417032 18.8366967 24.713481 18.8378707 24.7174016 18.8355228 24.7330841 18.8355228 24.758719 18.8361098 24.8304968 18.920338 25.0928778 19.0741207 25.3172587L21.4548163 28.9381159 23.7521641 25.2572429C23.8540011 25.0952905 23.9449793 24.9390683 23.9449793 24.7964175 23.9449793 24.670354 23.6561967 24.6064175 23.0877293 24.6064175L22.6718707 24.6064175 22.6718707 23.3961476 27.5439033 23.3961476 27.5439033 24.5623857 27.1735337 24.6040048C26.5968489 24.668846 26.0988163 24.7252429 24.929012 26.5468302L22.2674576 30.6674175 22.2674576 34.1670365C22.2674576 35.2171635 22.2674576 35.4062587 23.7565663 35.422846L24.1677293 35.4273698 24.1677293 36.6331159 17.6903707 36.6331159zM32.7477424 36.894954C31.8165359 36.894954 31.0890033 36.6358905 30.5575141 36.4467952 30.2869272 36.3499857 30.0316011 36.2592079 29.8880902 36.2592079 29.7589598 36.2592079 29.7319598 36.3620492 29.7319598 36.4489063L29.7319598 36.8762556 28.5495359 36.8762556 27.8765902 32.0562873 29.060188 32.0562873 29.1775793 32.3512397C29.5370902 33.2535889 30.3790793 35.3671127 32.5631446 35.3671127 33.7983946 35.3671127 34.3612859 34.5121127 34.3612859 33.7180333 34.3612859 32.9004302 34.231275 32.3608905 31.5620902 30.7778587 29.8144272 29.7569857 28.4758728 28.8106048 28.4758728 26.7414143 28.4758728 24.3733508 30.3649924 23.1344302 32.2312207 23.1344302 32.9766554 23.1344302 33.6680902 23.3913825 34.1725793 23.5792714 34.414112 23.6688429 34.6876337 23.7704778 34.7959272 23.7704778 34.9209489 23.7704778 34.9831663 23.7581127 35.0318837 23.4848746L35.0943946 23.1344302 36.2031554 23.1344302 36.6964924 27.9730968 35.4357098 27.9730968 35.3664489 27.6335095C35.0829489 26.2477159 34.0155685 24.7560651 32.341862 24.7560651 31.6445576 24.7560651 30.8944272 25.1665254 30.8944272 26.0682714 30.8944272 27.1147794 32.0592424 27.8054143 33.4080685 28.6052238 35.1181663 29.6191603 37.0565902 30.7688111 37.0565902 33.0819857 37.0565902 34.9771603 35.5765793 36.894954 32.7477424 36.894954M40.4535717 36.6331159L40.4535717 35.4409413 40.8512348 35.4231476C42.1877348 35.3640365 42.1877348 35.2578778 42.1877348 33.961354L42.1877348 25.036481 41.6075283 25.036481C39.7471696 25.036481 39.4401913 25.2858937 39.0812674 27.0890841L39.0134739 27.430481 37.7999413 27.430481 37.9405174 23.3961476 49.1487457 23.3961476 49.2890283 27.430481 48.0722674 27.430481 48.0068217 27.0845603C47.6681478 25.2852905 47.3611696 25.036481 45.4817348 25.036481L44.9012348 25.036481 44.9012348 34.1670365C44.9012348 35.1658937 44.9012348 35.3736873 46.2711913 35.4231476L46.6723761 35.4376238 46.6723761 36.6331159 40.4535717 36.6331159z"/>
      <path fill="#FEFEFE" d="M49.0816565,36.6331159 L49.0816565,35.4481794 L49.4719826,35.4234492 C50.5138304,35.3577032 50.6869826,35.3142746 50.6869826,34.1670365 L50.6869826,25.8625286 C50.6869826,24.703227 50.5241022,24.6902587 49.4652326,24.6052111 L49.0816565,24.5744492 L49.0816565,23.3961476 L59.7020478,23.3961476 L59.7751239,26.9256238 L58.5375261,26.9256238 L58.478537,26.570354 C58.2516783,25.2047667 58.0538739,24.9619889 56.0843413,24.9619889 L53.5932978,24.9619889 C53.5360696,24.9619889 53.4641674,24.9619889 53.4142761,24.9656079 C53.4075261,25.0033063 53.4004826,25.0675444 53.4004826,25.1703857 L53.4004826,28.8952905 L55.825787,28.8952905 C57.2283196,28.8952905 57.2655913,28.6513063 57.444613,27.4793381 L57.5000804,27.1183381 L58.6957109,27.1183381 L58.6957109,32.3125762 L57.4983196,32.3125762 L57.4443196,31.9494651 C57.2512109,30.6444968 57.1449717,30.5519095 55.8210913,30.5356238 L53.4004826,30.5036556 L53.4004826,34.7092905 C53.4004826,34.8012746 53.4004826,34.9116556 53.408113,34.9689571 C53.6373196,35.0678778 54.6122543,35.0678778 55.7336348,35.0678778 C57.8663413,35.0678778 58.652863,34.5955921 59.3938957,32.8723222 L59.5036565,32.6177825 L60.8339935,32.6177825 L59.7792326,36.6331159 L49.0816565,36.6331159 Z"/>
      <path fill="#FEFEFE" d="M70.9756043 36.6331159L70.9756043 35.4439571 71.3706261 35.4231476C72.5823978 35.3604175 72.6545935 35.2786873 72.6545935 33.961354L72.6545935 27.4606397 68.6154522 36.6331159 67.8230609 36.6331159 63.8740174 27.8551159 63.8740174 33.4564968C63.8740174 35.2807984 64.1950826 35.381227 65.2093435 35.4231476L65.6081804 35.4397349 65.6081804 36.6331159 60.4409087 36.6331159 60.4409087 35.4496873 60.8297674 35.4237508C61.9335391 35.3501635 62.2302457 35.3305603 62.2302457 33.4564968L62.2302457 25.8625286C62.2302457 24.713481 62.1152022 24.6742746 60.8714413 24.6058143L60.4775935 24.5844016 60.4775935 23.3961476 64.8122674 23.3961476 68.80005 32.2344651 72.6155609 23.3961476 76.9734196 23.3961476 76.9734196 24.5744492 76.5898435 24.6052111C75.5306804 24.6902587 75.3680935 24.703227 75.3680935 25.8625286L75.3680935 34.1670365C75.3680935 35.3142746 75.5412457 35.3577032 76.5828 35.4234492L76.9734196 35.4481794 76.9734196 36.6331159 70.9756043 36.6331159zM17.3080565 22.0618048L17.3080565 20.6606302 17.7024913 20.6398206C19.7251435 20.5327571 19.9338065 20.290281 19.9338065 18.0488841L19.9338065 6.51980476 13.2334043 22.0618048 12.2907522 22.0618048 5.73239348 7.17063016 5.73239348 17.2424397C5.73239348 20.271281 6.33226304 20.5668365 8.04588261 20.639519L8.44471957 20.6564079 8.44471957 22.0618048.831893478 22.0618048.831893478 20.6666619 1.2204587 20.6401222C3.09167609 20.5125508 3.63079565 20.3382333 3.63079565 17.2424397L3.63079565 5.11139206C3.63079565 3.11247143 3.33585 2.96439206 1.28296957 2.84918571L.889708696 2.82716984.889708696 1.42720159 7.28694783 1.42720159 13.6759696 15.8901222 19.7882413 1.42720159 26.218937 1.42720159 26.218937 2.81691587 25.8365348 2.84858254C24.2018609 2.98278889 23.7088174 3.02320159 23.7088174 5.11139206L23.7088174 18.3776143C23.7088174 20.4187571 24.1484478 20.5315508 25.8291978 20.6401222L26.218937 20.665154 26.218937 22.0618048 17.3080565 22.0618048zM26.9343783 22.0618048L26.9343783 20.665154 27.3241174 20.6401222C29.0051609 20.5315508 29.4447913 20.4187571 29.4447913 18.3776143L29.4447913 5.11139206C29.4447913 3.02320159 28.9514543 2.98278889 27.3170739 2.84858254L26.9343783 2.81691587 26.9343783 1.42720159 43.0794978 1.42720159 43.1833891 6.55478889 41.6851826 6.55478889 41.6270739 6.19801111C41.2335196 3.78169365 40.7131826 3.41767778 37.6516174 3.41767778L33.755987 3.41767778C33.2195087 3.41767778 33.2195087 3.41767778 33.2195087 4.0060746L33.2195087 10.2115349 37.2474978 10.2115349C39.5448457 10.2115349 39.7168239 9.69823333 40.0105957 7.73550317L40.0645957 7.37329683 41.5008783 7.37329683 41.5008783 15.1596778 40.0628348 15.1596778 40.0103022 14.7953603C39.6921717 12.6028206 39.4077913 12.3485825 37.2422152 12.3214397L33.2195087 12.267154 33.2195087 19.2440746C33.2195087 19.8496619 33.228313 19.8523762 33.4572261 19.9205349 33.9402913 20.0649952 35.0393674 20.0716302 37.1031065 20.0716302 40.5564652 20.0716302 41.8328022 19.2856937 43.0407587 16.4151857L43.1490522 16.1576302 44.7705196 16.1576302 43.2523565 22.0618048 26.9343783 22.0618048zM48.431925 22.0618048L48.431925 20.6576143 48.8292946 20.639519C51.1439576 20.5345667 51.1439576 20.1551698 51.1439576 18.0488841L51.1439576 3.53680476 50.0017402 3.53680476C46.9912402 3.53680476 46.4054576 4.02477302 45.8217293 7.01802698L45.7548163 7.36153492 44.2906533 7.36153492 44.4928598 1.42720159 61.5703598 1.42720159 61.7725663 7.36153492 60.3048815 7.36153492 60.2406098 7.01380476C59.6891641 4.02416984 59.1033815 3.53680476 56.0614793 3.53680476L54.9189685 3.53680476 54.9189685 18.3776143C54.9189685 20.1958841 55.1091424 20.5589952 57.2882185 20.639519L57.6891098 20.6542968 57.6891098 22.0618048 48.431925 22.0618048zM71.6310587 13.5284222L68.9108087 6.84977143 66.2137435 13.5284222 71.6310587 13.5284222zM71.9553522 22.0618349L71.9553522 20.6392476 72.3712109 20.6392476C73.6757217 20.6392476 73.975363 20.5068508 73.975363 19.9311206 73.975363 19.6081206 73.7082978 18.8155492 73.4603087 18.2162952L72.3847109 15.6081683 65.3843739 15.6081683 64.1605696 18.8315333C64.0340804 19.1720254 63.9577761 19.5396603 63.9577761 19.8119937 63.9577761 20.4148667 64.376863 20.6392476 65.504113 20.6392476L65.9199717 20.6392476 65.9199717 22.0618349 59.3748196 22.0618349 59.3748196 20.6651841 59.7645587 20.6401524C60.2100587 20.6112 60.5566565 20.5572159 60.9598957 20.1165968 61.5462652 19.4561206 62.4073304 17.3890413 62.9217978 16.1537397L62.9866565 15.9981206 69.0942326 1.06894603 70.2203087 1.06894603 77.5141239 18.2971206C78.4297761 20.4598032 78.735287 20.568073 79.7577652 20.6401524L80.14545 20.6675968 80.14545 22.0618349 71.9553522 22.0618349z"/>
      <path fill="#231F20" d="M8.98832935 36.894954C8.05682935 36.894954 7.32929674 36.6358905 6.79810109 36.4464937 6.52751413 36.3499857 6.27218804 36.2592079 6.12867717 36.2592079 5.99954674 36.2592079 5.97254674 36.3620492 5.97254674 36.4489063L5.97254674 36.8762556 4.78982935 36.8762556 4.11747065 32.0562873 5.300775 32.0562873 5.4181663 32.3515413C5.77767717 33.2535889 6.6196663 35.3671127 8.80373152 35.3671127 10.0389815 35.3671127 10.6018728 34.5121127 10.6018728 33.7180333 10.6018728 32.9004302 10.471862 32.3608905 7.80267717 30.7778587 6.05501413 29.7572873 4.7161663 28.8109063 4.7161663 26.7414143 4.7161663 24.3733508 6.60528587 23.1344302 8.47151413 23.1344302 9.21724239 23.1344302 9.90897065 23.3916841 10.4134598 23.5792714 10.6549924 23.6691444 10.9279272 23.7704778 11.0362207 23.7704778 11.1612424 23.7704778 11.2237533 23.7581127 11.2730576 23.4842714L11.335862 23.1344302 12.4437424 23.1344302 12.9370793 27.9730968 11.6762967 27.9730968 11.6070359 27.6335095C11.3235359 26.2477159 10.2561554 24.7560651 8.58215543 24.7560651 7.88485109 24.7560651 7.13472065 25.1665254 7.13472065 26.0682714 7.13472065 27.1147794 8.29953587 27.8054143 9.64836196 28.6052238 11.3587533 29.6191603 13.2971772 30.7688111 13.2971772 33.0819857 13.2971772 34.9771603 11.8171663 36.894954 8.98832935 36.894954M17.1034141 36.6331159L17.1034141 35.4315921 17.5110554 35.422846C18.9670011 35.3929889 18.9670011 35.284719 18.9670011 33.961354L18.9670011 30.840227 16.6235772 27.3587032C14.8301315 24.6851317 14.6059141 24.6646238 13.9405989 24.6049095L13.5611315 24.5708302 13.5611315 23.3961476 19.5586533 23.3961476 19.5586533 24.5883222 19.1606967 24.6061159C18.7961967 24.6224016 18.354512 24.6417032 18.2497402 24.713481 18.2509141 24.7174016 18.2485663 24.7330841 18.2485663 24.758719 18.2491533 24.8304968 18.3333815 25.0928778 18.4871641 25.3172587L20.8678598 28.9381159 23.1652076 25.2572429C23.2670446 25.0952905 23.3580228 24.9390683 23.3580228 24.7964175 23.3580228 24.670354 23.0692402 24.6064175 22.5007728 24.6064175L22.0849141 24.6064175 22.0849141 23.3961476 26.9569467 23.3961476 26.9569467 24.5623857 26.5865772 24.6040048C26.0098924 24.668846 25.5118598 24.7252429 24.3420554 26.5468302L21.6805011 30.6674175 21.6805011 34.1670365C21.6805011 35.2171635 21.6805011 35.4062587 23.1696098 35.422846L23.5807728 35.4273698 23.5807728 36.6331159 17.1034141 36.6331159zM31.8673076 36.894954C30.9361011 36.894954 30.2085685 36.6358905 29.6770793 36.4467952 29.4064924 36.3499857 29.1511663 36.2592079 29.0076554 36.2592079 28.878525 36.2592079 28.851525 36.3620492 28.851525 36.4489063L28.851525 36.8762556 27.6691011 36.8762556 26.9961554 32.0562873 28.1797533 32.0562873 28.2971446 32.3512397C28.6566554 33.2535889 29.4986446 35.3671127 31.6827098 35.3671127 32.9179598 35.3671127 33.4808511 34.5121127 33.4808511 33.7180333 33.4808511 32.9004302 33.3508402 32.3608905 30.6816554 30.7778587 28.9339924 29.7569857 27.595438 28.8106048 27.595438 26.7414143 27.595438 24.3733508 29.4845576 23.1344302 31.3507859 23.1344302 32.0962207 23.1344302 32.7876554 23.3913825 33.2921446 23.5792714 33.5336772 23.6688429 33.8071989 23.7704778 33.9154924 23.7704778 34.0405141 23.7704778 34.1027315 23.7581127 34.1514489 23.4848746L34.2139598 23.1344302 35.3227207 23.1344302 35.8160576 27.9730968 34.555275 27.9730968 34.4860141 27.6335095C34.2025141 26.2477159 33.1351337 24.7560651 31.4614272 24.7560651 30.7641228 24.7560651 30.0139924 25.1665254 30.0139924 26.0682714 30.0139924 27.1147794 31.1788076 27.8054143 32.5276337 28.6052238 34.2377315 29.6191603 36.1761554 30.7688111 36.1761554 33.0819857 36.1761554 34.9771603 34.6961446 36.894954 31.8673076 36.894954M39.573137 36.6331159L39.573137 35.4409413 39.9708 35.4231476C41.3073 35.3640365 41.3073 35.2578778 41.3073 33.961354L41.3073 25.036481 40.7270935 25.036481C38.8667348 25.036481 38.5597565 25.2858937 38.2008326 27.0890841L38.1330391 27.430481 36.9195065 27.430481 37.0600826 23.3961476 48.2683109 23.3961476 48.4085935 27.430481 47.1918326 27.430481 47.126387 27.0845603C46.787713 25.2852905 46.4807348 25.036481 44.6013 25.036481L44.0208 25.036481 44.0208 34.1670365C44.0208 35.1658937 44.0208 35.3736873 45.3907565 35.4231476L45.7919413 35.4376238 45.7919413 36.6331159 39.573137 36.6331159zM49.0816565 36.6331159L49.0816565 35.4481794 49.4719826 35.4234492C50.5138304 35.3577032 50.6869826 35.3142746 50.6869826 34.1670365L50.6869826 25.8625286C50.6869826 24.703227 50.5241022 24.6902587 49.4652326 24.6052111L49.0816565 24.5744492 49.0816565 23.3961476 59.7020478 23.3961476 59.7751239 26.9256238 58.5375261 26.9256238 58.478537 26.570354C58.2516783 25.2047667 58.0538739 24.9619889 56.0843413 24.9619889L53.5932978 24.9619889C53.5360696 24.9619889 53.4641674 24.9619889 53.4142761 24.9656079 53.4075261 25.0033063 53.4004826 25.0675444 53.4004826 25.1703857L53.4004826 28.8952905 55.825787 28.8952905C57.2283196 28.8952905 57.2655913 28.6513063 57.444613 27.4793381L57.5000804 27.1183381 58.6957109 27.1183381 58.6957109 32.3125762 57.4983196 32.3125762 57.4443196 31.9494651C57.2512109 30.6444968 57.1449717 30.5519095 55.8210913 30.5356238L53.4004826 30.5036556 53.4004826 34.7092905C53.4004826 34.8012746 53.4004826 34.9116556 53.408113 34.9689571 53.6373196 35.0678778 54.6122543 35.0678778 55.7336348 35.0678778 57.8663413 35.0678778 58.652863 34.5955921 59.3938957 32.8723222L59.5036565 32.6177825 60.8339935 32.6177825 59.7792326 36.6331159 49.0816565 36.6331159z"/>
      <path fill="#231F20" d="M70.9756043 36.6331159L70.9756043 35.4439571 71.3706261 35.4231476C72.5823978 35.3604175 72.6545935 35.2786873 72.6545935 33.961354L72.6545935 27.4606397 68.6154522 36.6331159 67.8230609 36.6331159 63.8740174 27.8551159 63.8740174 33.4564968C63.8740174 35.2807984 64.1950826 35.381227 65.2093435 35.4231476L65.6081804 35.4397349 65.6081804 36.6331159 60.4409087 36.6331159 60.4409087 35.4496873 60.8297674 35.4237508C61.9335391 35.3501635 62.2302457 35.3305603 62.2302457 33.4564968L62.2302457 25.8625286C62.2302457 24.713481 62.1152022 24.6742746 60.8714413 24.6058143L60.4775935 24.5844016 60.4775935 23.3961476 64.8122674 23.3961476 68.80005 32.2344651 72.6155609 23.3961476 76.9734196 23.3961476 76.9734196 24.5744492 76.5898435 24.6052111C75.5306804 24.6902587 75.3680935 24.703227 75.3680935 25.8625286L75.3680935 34.1670365C75.3680935 35.3142746 75.5412457 35.3577032 76.5828 35.4234492L76.9734196 35.4481794 76.9734196 36.6331159 70.9756043 36.6331159zM17.3080565 22.0618048L17.3080565 20.6606302 17.7024913 20.6398206C19.7251435 20.5327571 19.9338065 20.290281 19.9338065 18.0488841L19.9338065 6.51980476 13.2334043 22.0618048 12.2907522 22.0618048 5.73239348 7.17063016 5.73239348 17.2424397C5.73239348 20.271281 6.33226304 20.5668365 8.04588261 20.639519L8.44471957 20.6564079 8.44471957 22.0618048.831893478 22.0618048.831893478 20.6666619 1.2204587 20.6401222C3.09167609 20.5125508 3.63079565 20.3382333 3.63079565 17.2424397L3.63079565 5.11139206C3.63079565 3.11247143 3.33585 2.96439206 1.28296957 2.84918571L.889708696 2.82716984.889708696 1.42720159 7.28694783 1.42720159 13.6759696 15.8901222 19.7882413 1.42720159 26.218937 1.42720159 26.218937 2.81691587 25.8365348 2.84858254C24.2018609 2.98278889 23.7088174 3.02320159 23.7088174 5.11139206L23.7088174 18.3776143C23.7088174 20.4187571 24.1484478 20.5315508 25.8291978 20.6401222L26.218937 20.665154 26.218937 22.0618048 17.3080565 22.0618048zM26.9343783 22.0618048L26.9343783 20.665154 27.3241174 20.6401222C29.0051609 20.5315508 29.4447913 20.4187571 29.4447913 18.3776143L29.4447913 5.11139206C29.4447913 3.02320159 28.9514543 2.98278889 27.3170739 2.84858254L26.9343783 2.81691587 26.9343783 1.42720159 43.0794978 1.42720159 43.1833891 6.55478889 41.6851826 6.55478889 41.6270739 6.19801111C41.2335196 3.78169365 40.7131826 3.41767778 37.6516174 3.41767778L33.755987 3.41767778C33.2195087 3.41767778 33.2195087 3.41767778 33.2195087 4.0060746L33.2195087 10.2115349 37.2474978 10.2115349C39.5448457 10.2115349 39.7168239 9.69823333 40.0105957 7.73550317L40.0645957 7.37329683 41.5008783 7.37329683 41.5008783 15.1596778 40.0628348 15.1596778 40.0103022 14.7953603C39.6921717 12.6028206 39.4077913 12.3485825 37.2422152 12.3214397L33.2195087 12.267154 33.2195087 19.2440746C33.2195087 19.8496619 33.228313 19.8523762 33.4572261 19.9205349 33.9402913 20.0649952 35.0393674 20.0716302 37.1031065 20.0716302 40.5564652 20.0716302 41.8328022 19.2856937 43.0407587 16.4151857L43.1490522 16.1576302 44.7705196 16.1576302 43.2523565 22.0618048 26.9343783 22.0618048zM48.431925 22.0618048L48.431925 20.6576143 48.8292946 20.639519C51.1439576 20.5345667 51.1439576 20.1551698 51.1439576 18.0488841L51.1439576 3.53680476 50.0017402 3.53680476C46.9912402 3.53680476 46.4054576 4.02477302 45.8217293 7.01802698L45.7548163 7.36153492 44.2906533 7.36153492 44.4928598 1.42720159 61.5703598 1.42720159 61.7725663 7.36153492 60.3048815 7.36153492 60.2406098 7.01380476C59.6891641 4.02416984 59.1033815 3.53680476 56.0614793 3.53680476L54.9189685 3.53680476 54.9189685 18.3776143C54.9189685 20.1958841 55.1091424 20.5589952 57.2882185 20.639519L57.6891098 20.6542968 57.6891098 22.0618048 48.431925 22.0618048zM71.6310587 13.5284222L68.9108087 6.84977143 66.2137435 13.5284222 71.6310587 13.5284222zM71.9553522 22.0618349L71.9553522 20.6392476 72.3712109 20.6392476C73.6757217 20.6392476 73.975363 20.5068508 73.975363 19.9311206 73.975363 19.6081206 73.7082978 18.8155492 73.4603087 18.2162952L72.3847109 15.6081683 65.3843739 15.6081683 64.1605696 18.8315333C64.0340804 19.1720254 63.9577761 19.5396603 63.9577761 19.8119937 63.9577761 20.4148667 64.376863 20.6392476 65.504113 20.6392476L65.9199717 20.6392476 65.9199717 22.0618349 59.3748196 22.0618349 59.3748196 20.6651841 59.7645587 20.6401524C60.2100587 20.6112 60.5566565 20.5572159 60.9598957 20.1165968 61.5462652 19.4561206 62.4073304 17.3890413 62.9217978 16.1537397L62.9866565 15.9981206 69.0942326 1.06894603 70.2203087 1.06894603 77.5141239 18.2971206C78.4297761 20.4598032 78.735287 20.568073 79.7577652 20.6401524L80.14545 20.6675968 80.14545 22.0618349 71.9553522 22.0618349z"/>
    </g>
  </g>
</svg>
